<svg width="20" height="16" viewBox="0 0 20 16" fill="none" xmlns="http://www.w3.org/2000/svg">
<path fill-rule="evenodd" clip-rule="evenodd" d="M18.6875 2.605L10.7963 9.14C10.572 9.32579 10.29 9.42745 9.99875 9.42745C9.70755 9.42745 9.42549 9.32579 9.20125 9.14L1.31375 2.605C1.27143 2.73239 1.2499 2.86576 1.25 3V13C1.25 13.3315 1.3817 13.6495 1.61612 13.8839C1.85054 14.1183 2.16848 14.25 2.5 14.25H17.5C17.8315 14.25 18.1495 14.1183 18.3839 13.8839C18.6183 13.6495 18.75 13.3315 18.75 13V3C18.7505 2.86583 18.7294 2.73246 18.6875 2.605ZM2.5 0.5H17.5C18.163 0.5 18.7989 0.763392 19.2678 1.23223C19.7366 1.70107 20 2.33696 20 3V13C20 13.663 19.7366 14.2989 19.2678 14.7678C18.7989 15.2366 18.163 15.5 17.5 15.5H2.5C1.83696 15.5 1.20107 15.2366 0.732233 14.7678C0.263392 14.2989 0 13.663 0 13V3C0 2.33696 0.263392 1.70107 0.732233 1.23223C1.20107 0.763392 1.83696 0.5 2.5 0.5ZM2.2375 1.75L9.2075 7.50375C9.43073 7.68813 9.71105 7.7893 10.0006 7.78999C10.2901 7.79067 10.5709 7.69082 10.795 7.5075L17.835 1.75H2.2375Z" fill="#E75401"/>
</svg>
