<svg width="37" height="38" viewBox="0 0 37 38" fill="none" xmlns="http://www.w3.org/2000/svg">
<path opacity="0.1" fill-rule="evenodd" clip-rule="evenodd" d="M18.5 36.5C28.165 36.5 36 28.665 36 19C36 9.33502 28.165 1.5 18.5 1.5C8.83502 1.5 1 9.33502 1 19C1 28.665 8.83502 36.5 18.5 36.5Z" stroke="#E75401" stroke-width="1.5"/>
<path d="M20.0932 14.5208H21.7016C21.8495 14.5208 21.9696 14.4076 21.9696 14.2682V12.7526C21.9696 12.6132 21.8495 12.5 21.7016 12.5H20.0932C18.4677 12.5 17.1445 13.7463 17.1445 15.2786V17.0468H15.2681C15.1201 17.0468 15 17.1599 15 17.2994V18.8149C15 18.9544 15.1201 19.0675 15.2681 19.0675H17.1445V24.3721C17.1445 24.5115 17.2646 24.6247 17.4126 24.6247H19.0209C19.1689 24.6247 19.289 24.5115 19.289 24.3721V19.0675H21.1655C21.2807 19.0675 21.3831 18.9978 21.4201 18.8948L21.9562 17.3792C21.9836 17.3024 21.9696 17.2175 21.9192 17.1513C21.8683 17.0857 21.7879 17.0468 21.7016 17.0468H19.289V15.2786C19.289 14.8608 19.6498 14.5208 20.0932 14.5208Z" fill="#E75401"/>
</svg>
