<svg width="37" height="38" viewBox="0 0 37 38" fill="none" xmlns="http://www.w3.org/2000/svg">
<path opacity="0.1" fill-rule="evenodd" clip-rule="evenodd" d="M18.5 36.5C28.165 36.5 36 28.665 36 19C36 9.33502 28.165 1.5 18.5 1.5C8.83502 1.5 1 9.33502 1 19C1 28.665 8.83502 36.5 18.5 36.5Z" stroke="#E75401" stroke-width="1.5"/>
<path d="M18.985 15.385C18.1741 15.385 17.3814 15.6255 16.7072 16.076C16.0329 16.5265 15.5074 17.1668 15.1971 17.916C14.8868 18.6652 14.8056 19.4895 14.9638 20.2849C15.122 21.0802 15.5125 21.8107 16.0859 22.3841C16.6593 22.9575 17.3898 23.348 18.1851 23.5062C18.9805 23.6644 19.8048 23.5832 20.554 23.2729C21.3032 22.9626 21.9435 22.4371 22.394 21.7628C22.8445 21.0886 23.085 20.2959 23.085 19.485C23.0863 18.9462 22.9812 18.4125 22.7756 17.9144C22.57 17.4164 22.2681 16.9639 21.8871 16.5829C21.5061 16.2019 21.0536 15.9 20.5556 15.6944C20.0575 15.4888 19.5238 15.3837 18.985 15.385ZM18.985 22.155C18.4569 22.155 17.9407 21.9984 17.5016 21.705C17.0625 21.4116 16.7203 20.9946 16.5182 20.5068C16.3162 20.0189 16.2633 19.482 16.3663 18.9641C16.4693 18.4462 16.7236 17.9704 17.097 17.597C17.4704 17.2236 17.9462 16.9693 18.4641 16.8663C18.982 16.7633 19.5189 16.8162 20.0068 17.0182C20.4946 17.2203 20.9116 17.5625 21.205 18.0016C21.4984 18.4407 21.655 18.9569 21.655 19.485C21.655 20.1931 21.3737 20.8723 20.873 21.373C20.3723 21.8737 19.6931 22.155 18.985 22.155ZM24.215 15.215C24.215 15.4128 24.1564 15.6061 24.0465 15.7706C23.9366 15.935 23.7804 16.0632 23.5977 16.1389C23.415 16.2146 23.2139 16.2344 23.0199 16.1958C22.8259 16.1572 22.6477 16.062 22.5079 15.9221C22.368 15.7823 22.2728 15.6041 22.2342 15.4101C22.1956 15.2161 22.2154 15.015 22.2911 14.8323C22.3668 14.6496 22.495 14.4934 22.6594 14.3835C22.8239 14.2736 23.0172 14.215 23.215 14.215C23.4802 14.215 23.7346 14.3204 23.9221 14.5079C24.1096 14.6954 24.215 14.9498 24.215 15.215ZM26.925 16.215C26.9552 14.9716 26.4913 13.767 25.635 12.865C25.1908 12.4356 24.6662 12.098 24.0914 11.8715C23.5166 11.645 22.9027 11.534 22.285 11.545C20.985 11.485 16.985 11.485 15.685 11.545C14.4422 11.5181 13.2388 11.9815 12.335 12.835C11.4787 13.737 11.0148 14.9416 11.045 16.185C10.985 17.485 10.985 21.485 11.045 22.785C11.0148 24.0284 11.4787 25.233 12.335 26.135C13.2388 26.9885 14.4422 27.4519 15.685 27.425C17.005 27.505 20.965 27.505 22.285 27.425C23.5284 27.4552 24.733 26.9913 25.635 26.135C26.4913 25.233 26.9552 24.0284 26.925 22.785C26.985 21.485 26.985 17.485 26.925 16.185V16.215ZM25.225 24.215C25.0892 24.5589 24.8843 24.8713 24.6228 25.1328C24.3613 25.3943 24.0489 25.5992 23.705 25.735C22.1526 26.0489 20.5656 26.1565 18.985 26.055C17.4078 26.1556 15.8241 26.048 14.275 25.735C13.9311 25.5992 13.6187 25.3943 13.3572 25.1328C13.0957 24.8713 12.8908 24.5589 12.755 24.215C12.335 23.155 12.425 20.655 12.425 19.495C12.425 18.335 12.335 15.825 12.755 14.775C12.8869 14.4277 13.0905 14.112 13.3523 13.8484C13.6142 13.5848 13.9285 13.3792 14.275 13.245C15.8241 12.932 17.4078 12.8244 18.985 12.925C20.5656 12.8235 22.1526 12.9311 23.705 13.245C24.0489 13.3808 24.3613 13.5857 24.6228 13.8472C24.8843 14.1087 25.0892 14.4211 25.225 14.765C25.645 15.825 25.545 18.325 25.545 19.485C25.545 20.645 25.645 23.155 25.225 24.205V24.215Z" fill="#E75401"/>
</svg>
