<svg width="37" height="38" viewBox="0 0 37 38" fill="none" xmlns="http://www.w3.org/2000/svg">
<path opacity="0.1" fill-rule="evenodd" clip-rule="evenodd" d="M18.5 36.5C28.165 36.5 36 28.665 36 19C36 9.33502 28.165 1.5 18.5 1.5C8.83502 1.5 1 9.33502 1 19C1 28.665 8.83502 36.5 18.5 36.5Z" stroke="#E75401" stroke-width="1.5"/>
<path d="M13.1526 14.4977C14.1596 14.4977 14.9759 13.6814 14.9759 12.6744C14.9759 11.6674 14.1596 10.8511 13.1526 10.8511C12.1456 10.8511 11.3292 11.6674 11.3292 12.6744C11.3292 13.6814 12.1456 14.4977 13.1526 14.4977Z" fill="#E75401"/>
<path d="M16.6976 15.8794V25.9952H19.8384V20.9927C19.8384 19.6727 20.0867 18.3944 21.7234 18.3944C23.3376 18.3944 23.3576 19.9036 23.3576 21.0761V25.9961H26.5001V20.4486C26.5001 17.7236 25.9134 15.6294 22.7284 15.6294C21.1992 15.6294 20.1742 16.4686 19.7551 17.2627H19.7126V15.8794H16.6976ZM11.5792 15.8794H14.7251V25.9952H11.5792V15.8794Z" fill="#E75401"/>
</svg>
