<svg width="20" height="20" viewBox="0 0 20 20" fill="none" xmlns="http://www.w3.org/2000/svg">
<path fill-rule="evenodd" clip-rule="evenodd" d="M2.54647 0.857602C3.79457 -0.450482 5.84978 -0.218053 6.89482 1.25435L8.18906 3.07486C9.04027 4.27267 8.96438 5.94616 7.95421 7.00452L7.71013 7.26181C7.68257 7.36983 7.67976 7.48322 7.70193 7.59261C7.76654 8.03368 8.11625 8.96772 9.58074 10.5028C11.0452 12.0379 11.9375 12.4055 12.362 12.4747C12.4689 12.4986 12.5797 12.4953 12.6851 12.465L13.1035 12.026C14.0019 11.0855 15.3802 10.9093 16.4919 11.5461L18.4507 12.6704C20.1296 13.6303 20.5531 16.0346 19.1789 17.4757L17.7216 19.0021C17.2621 19.4832 16.6447 19.8843 15.892 19.9589C14.0357 20.1416 9.71098 19.9081 5.16471 15.1438C0.922 10.6963 0.107711 6.81749 0.00412991 4.90618C-0.0471477 3.93971 0.385635 3.12242 0.937383 2.54514L2.54647 0.857602ZM5.66415 2.22623C5.1442 1.49435 4.17608 1.43597 3.63048 2.00785L2.02037 3.69431C1.68193 4.04889 1.5199 4.44024 1.54041 4.81429C1.62245 6.33318 2.27881 9.83257 6.24974 13.9947C10.4155 18.36 14.2624 18.4908 15.7494 18.3438C16.053 18.3146 16.3545 18.1481 16.6365 17.853L18.0928 16.3254C18.6856 15.7049 18.5553 14.5741 17.7164 14.0941L15.7576 12.9709C15.2161 12.6617 14.5824 12.7633 14.1885 13.1763L13.7219 13.666L13.1784 13.0909C13.7219 13.666 13.7209 13.6671 13.7199 13.6671L13.7188 13.6693L13.7158 13.6725L13.7086 13.679L13.6932 13.6941C13.6496 13.7361 13.603 13.7744 13.5537 13.8087C13.4717 13.866 13.363 13.9298 13.2266 13.9828C12.9497 14.092 12.5825 14.1503 12.1292 14.0768C11.2401 13.933 10.0617 13.2941 8.4957 11.6531C6.93071 10.012 6.31948 8.77746 6.18206 7.84126C6.11129 7.36343 6.1677 6.97641 6.27231 6.68452C6.33031 6.52049 6.4127 6.36722 6.51639 6.23048L6.54921 6.19264L6.56356 6.17642L6.56972 6.16994L6.57279 6.16669L6.57484 6.16453L6.8702 5.85535C7.30914 5.39373 7.37067 4.62942 6.95738 4.04673L5.66415 2.22623Z" fill="#E75401"/>
</svg>
