<svg width="37" height="38" viewBox="0 0 37 38" fill="none" xmlns="http://www.w3.org/2000/svg">
<path opacity="0.1" fill-rule="evenodd" clip-rule="evenodd" d="M18.5 36.5C28.165 36.5 36 28.665 36 19C36 9.33502 28.165 1.5 18.5 1.5C8.83502 1.5 1 9.33502 1 19C1 28.665 8.83502 36.5 18.5 36.5Z" stroke="#E75401" stroke-width="1.5"/>
<path d="M24.2202 15.7647C24.139 15.6729 24.0081 15.6498 23.9007 15.7064C23.8339 15.7416 23.7083 15.7878 23.5592 15.8334C23.7473 15.5762 23.8985 15.2882 23.9653 15.0293C23.9942 14.9177 23.952 14.8001 23.8601 14.7336C23.7682 14.6677 23.6458 14.6677 23.5539 14.7336C23.4091 14.8375 22.7102 15.1497 22.2683 15.2508C21.2696 14.3511 20.1074 14.2577 18.8992 14.9831C17.9171 15.5729 17.7034 16.7721 17.7451 17.5031C15.4971 17.2805 14.0998 16.0593 13.3132 15.0485C13.2582 14.9776 13.1695 14.9403 13.0861 14.9458C12.9985 14.9524 12.9194 15.0024 12.8745 15.0799C12.5026 15.7257 12.3995 16.4396 12.5774 17.1447C12.6747 17.5295 12.8446 17.8686 13.0418 18.1434C12.9472 18.0956 12.8558 18.0357 12.7698 17.9642C12.6907 17.8972 12.5801 17.8845 12.4866 17.929C12.3936 17.9747 12.3343 18.0714 12.3343 18.1775C12.3343 19.3882 13.0706 20.1962 13.7583 20.6183C13.6472 20.6045 13.5312 20.5792 13.4142 20.5424C13.3138 20.5111 13.2048 20.5424 13.1353 20.6238C13.0658 20.7046 13.0493 20.82 13.0926 20.9184C13.4789 21.7972 14.2109 22.4017 15.1166 22.621C14.3258 23.0986 13.2673 23.3328 12.298 23.2179C12.1724 23.1998 12.0527 23.2817 12.0132 23.4059C11.9736 23.5301 12.0255 23.6664 12.1361 23.7301C13.6066 24.5793 14.936 24.8827 16.0849 24.8827C17.7568 24.8827 19.0472 24.2407 19.8327 23.7038C21.9503 22.2583 23.2701 19.663 23.0863 17.341C23.4256 17.0832 23.9333 16.6072 24.248 16.0955C24.3132 15.9922 24.3014 15.8559 24.2202 15.7647Z" fill="#E75401"/>
</svg>
