<svg width="31" height="22" viewBox="0 0 31 22" fill="none" xmlns="http://www.w3.org/2000/svg">
<path d="M17.375 2.375C17.375 1.87772 17.1775 1.40081 16.8258 1.04917C16.4742 0.697544 15.9973 0.5 15.5 0.5C15.0027 0.5 14.5258 0.697544 14.1742 1.04917C13.8225 1.40081 13.625 1.87772 13.625 2.375C13.625 2.87228 13.8225 3.34919 14.1742 3.70083C14.5258 4.05246 15.0027 4.25 15.5 4.25C15.9973 4.25 16.4742 4.05246 16.8258 3.70083C17.1775 3.34919 17.375 2.87228 17.375 2.375ZM7.25 8.75C7.74728 8.75 8.22419 8.55246 8.57582 8.20083C8.92746 7.84919 9.125 7.37228 9.125 6.875C9.125 6.37772 8.92746 5.90081 8.57582 5.54917C8.22419 5.19754 7.74728 5 7.25 5C6.75272 5 6.27581 5.19754 5.92417 5.54917C5.57254 5.90081 5.375 6.37772 5.375 6.875C5.375 7.37228 5.57254 7.84919 5.92417 8.20083C6.27581 8.55246 6.75272 8.75 7.25 8.75ZM2 18.5C1.17031 18.5 0.5 19.1703 0.5 20C0.5 20.8297 1.17031 21.5 2 21.5H29C29.8297 21.5 30.5 20.8297 30.5 20C30.5 19.1703 29.8297 18.5 29 18.5H2ZM23.75 8.75C24.2473 8.75 24.7242 8.55246 25.0758 8.20083C25.4275 7.84919 25.625 7.37228 25.625 6.875C25.625 6.37772 25.4275 5.90081 25.0758 5.54917C24.7242 5.19754 24.2473 5 23.75 5C23.2527 5 22.7758 5.19754 22.4242 5.54917C22.0725 5.90081 21.875 6.37772 21.875 6.875C21.875 7.37228 22.0725 7.84919 22.4242 8.20083C22.7758 8.55246 23.2527 8.75 23.75 8.75ZM9.875 13.6953L11.1359 16.0344C11.4312 16.5828 12.1109 16.7844 12.6594 16.4938C13.2078 16.2031 13.4094 15.5188 13.1188 14.9703L11.4172 11.8063C11.4969 11.7266 11.5672 11.6375 11.6187 11.5344L12.875 9.19531V11.75C12.875 12.5797 13.5453 13.25 14.375 13.25H16.625C17.4547 13.25 18.125 12.5797 18.125 11.75V9.19531L19.3859 11.5344C19.4422 11.6375 19.5078 11.7266 19.5875 11.8063L17.8859 14.9703C17.5906 15.5188 17.7969 16.1984 18.3453 16.4938C18.8938 16.7891 19.5734 16.5828 19.8688 16.0344L21.125 13.6953V15.5C21.125 16.3297 21.7953 17 22.625 17H24.875C25.7047 17 26.375 16.3297 26.375 15.5V13.6953L27.6359 16.0344C27.9313 16.5828 28.6109 16.7844 29.1594 16.4938C29.7078 16.2031 29.9094 15.5188 29.6188 14.9703L27.8422 11.675C27.125 10.3391 25.7281 9.50469 24.2094 9.50469H23.2906C22.5266 9.50469 21.7953 9.71562 21.1625 10.0953L19.5875 7.175C18.8703 5.83906 17.4734 5.00469 15.9547 5.00469H15.0406C13.5219 5.00469 12.1297 5.83906 11.4078 7.175L9.83281 10.0953C9.2 9.71562 8.46875 9.50469 7.70469 9.50469H6.79062C5.27187 9.50469 3.87969 10.3391 3.15781 11.675L1.38594 14.9656C1.09062 15.5141 1.29688 16.1938 1.84531 16.4891C2.39375 16.7844 3.07344 16.5781 3.36875 16.0297L4.625 13.6953V15.5C4.625 16.3297 5.29531 17 6.125 17H8.375C9.20469 17 9.875 16.3297 9.875 15.5V13.6953Z" fill="#E75401"/>
</svg>
