<svg width="25" height="26" viewBox="0 0 25 26" fill="none" xmlns="http://www.w3.org/2000/svg">
<path d="M5.64286 6.5C5.64286 8.22391 6.3653 9.87721 7.65127 11.0962C8.93723 12.3152 10.6814 13 12.5 13C14.3186 13 16.0628 12.3152 17.3487 11.0962C18.6347 9.87721 19.3571 8.22391 19.3571 6.5C19.3571 4.77609 18.6347 3.12279 17.3487 1.90381C16.0628 0.68482 14.3186 0 12.5 0C10.6814 0 8.93723 0.68482 7.65127 1.90381C6.3653 3.12279 5.64286 4.77609 5.64286 6.5ZM10.7054 16.6664L11.7018 18.2406L9.91786 24.5324L7.98929 17.0727C7.88214 16.6613 7.46429 16.3922 7.03036 16.4988C3.28036 17.3875 0.5 20.607 0.5 24.441C0.5 25.3043 1.23929 26 2.14464 26H22.8554C23.7661 26 24.5 25.2992 24.5 24.441C24.5 20.607 21.7196 17.3875 17.9696 16.4988C17.5357 16.3973 17.1179 16.6664 17.0107 17.0727L15.0821 24.5324L13.2982 18.2406L14.2946 16.6664C14.6375 16.123 14.225 15.4375 13.5607 15.4375H11.4446C10.7804 15.4375 10.3679 16.1281 10.7107 16.6664H10.7054Z" fill="#E75401"/>
</svg>
