<svg width="25" height="14" viewBox="0 0 25 14" fill="none" xmlns="http://www.w3.org/2000/svg">
<path d="M22.625 0.25C21.5893 0.25 20.75 1.08963 20.75 2.125C20.75 2.33763 20.7931 2.53825 20.858 2.72875L16.2875 6.66437C15.9669 6.409 15.5667 6.25 15.125 6.25C14.6154 6.25 14.1545 6.45475 13.817 6.78475L10.2369 4.99225C10.1671 4.01988 9.36502 3.25 8.375 3.25C7.33965 3.25 6.5 4.08963 6.5 5.125C6.5 5.4085 6.5675 5.67438 6.68 5.91512L3.02975 10.1241C2.825 10.0476 2.60637 10 2.375 10C1.33963 10 0.5 10.8396 0.5 11.875C0.5 12.9104 1.33963 13.75 2.375 13.75C3.41037 13.75 4.25 12.9104 4.25 11.875C4.25 11.6256 4.199 11.3883 4.1105 11.1708L7.82 6.907C7.99662 6.96175 8.18038 7 8.375 7C8.92062 7 9.40735 6.763 9.7501 6.39062L13.2519 8.14637C13.2642 9.17163 14.0967 10 15.125 10C16.1608 10 17 9.16037 17 8.125C17 8.09163 16.9921 8.0605 16.9902 8.0275L21.8675 3.83762C22.0996 3.94037 22.3546 4 22.625 4C23.6608 4 24.5 3.16075 24.5 2.125C24.5 1.08963 23.6607 0.25 22.625 0.25Z" fill="#E75401"/>
</svg>
