<svg width="14" height="21" viewBox="0 0 14 21" fill="none" xmlns="http://www.w3.org/2000/svg">
<path d="M3 15L1.553 15.8145C1.38692 15.9079 1.24722 16.0514 1.14955 16.229C1.05188 16.4067 1.0001 16.6114 1 16.8203V19.5H13V16.8203C12.9999 16.6114 12.9481 16.4067 12.8504 16.229C12.7528 16.0514 12.6131 15.9079 12.447 15.8145L11 15M3 15H11M3 15L4 4.875H10L11 15M1 1.5L1.5 4.875H12.5L13 1.5M5 1.5V4.875M9 1.5V4.875" stroke="#1915CB" stroke-width="2" stroke-linecap="round" stroke-linejoin="round"/>
<path d="M3 15L1.553 15.8145C1.38692 15.9079 1.24722 16.0514 1.14955 16.229C1.05188 16.4067 1.0001 16.6114 1 16.8203V19.5H13V16.8203C12.9999 16.6114 12.9481 16.4067 12.8504 16.229C12.7528 16.0514 12.6131 15.9079 12.447 15.8145L11 15M3 15H11M3 15L4 4.875H10L11 15M1 1.5L1.5 4.875H12.5L13 1.5M5 1.5V4.875M9 1.5V4.875" stroke="black" stroke-opacity="0.2" stroke-width="2" stroke-linecap="round" stroke-linejoin="round"/>
</svg>
