<svg width="23" height="18" viewBox="0 0 23 18" fill="none" xmlns="http://www.w3.org/2000/svg">
<path d="M21 7.68361e-05H18.3333V2.00008C18.3333 2.19268 18.2954 2.3834 18.2217 2.56135C18.148 2.73929 18.0399 2.90097 17.9037 3.03717C17.7675 3.17336 17.6058 3.28139 17.4279 3.3551C17.25 3.42881 17.0592 3.46674 16.8666 3.46674C16.674 3.46674 16.4833 3.42881 16.3054 3.3551C16.1274 3.28139 15.9657 3.17336 15.8295 3.03717C15.6934 2.90097 15.5853 2.73929 15.5116 2.56135C15.4379 2.3834 15.4 2.19268 15.4 2.00008V7.68361e-05H7.6333V2.00008C7.6333 2.38906 7.47878 2.76211 7.20372 3.03717C6.92867 3.31222 6.55562 3.46674 6.16664 3.46674C5.77765 3.46674 5.4046 3.31222 5.12955 3.03717C4.85449 2.76211 4.69997 2.38906 4.69997 2.00008V7.68361e-05H2.0333C1.87465 -0.00172859 1.71725 0.0282993 1.5704 0.0883849C1.42356 0.14847 1.29026 0.237393 1.17838 0.349894C1.0665 0.462395 0.978315 0.596189 0.919044 0.743364C0.859772 0.890539 0.830617 1.0481 0.833301 1.20674V16.1267C0.830653 16.2826 0.858731 16.4374 0.915932 16.5824C0.973133 16.7274 1.05834 16.8597 1.16668 16.9718C1.27501 17.0838 1.40437 17.1734 1.54735 17.2355C1.69032 17.2975 1.84413 17.3308 1.99997 17.3334H21C21.1558 17.3308 21.3096 17.2975 21.4526 17.2355C21.5956 17.1734 21.7249 17.0838 21.8333 16.9718C21.9416 16.8597 22.0268 16.7274 22.084 16.5824C22.1412 16.4374 22.1693 16.2826 22.1666 16.1267V1.20674C22.1693 1.0509 22.1412 0.896066 22.084 0.751078C22.0268 0.60609 21.9416 0.473791 21.8333 0.361737C21.7249 0.249683 21.5956 0.16007 21.4526 0.0980154C21.3096 0.035961 21.1558 0.00268124 21 7.68361e-05ZM6.16664 13.3334H4.8333V12.0001H6.16664V13.3334ZM6.16664 10.0001H4.8333V8.66674H6.16664V10.0001ZM6.16664 6.66674H4.8333V5.33341H6.16664V6.66674ZM10.1666 13.3334H8.8333V12.0001H10.1666V13.3334ZM10.1666 10.0001H8.8333V8.66674H10.1666V10.0001ZM10.1666 6.66674H8.8333V5.33341H10.1666V6.66674ZM14.1666 13.3334H12.8333V12.0001H14.1666V13.3334ZM14.1666 10.0001H12.8333V8.66674H14.1666V10.0001ZM14.1666 6.66674H12.8333V5.33341H14.1666V6.66674ZM18.1666 13.3334H16.8333V12.0001H18.1666V13.3334ZM18.1666 10.0001H16.8333V8.66674H18.1666V10.0001ZM18.1666 6.66674H16.8333V5.33341H18.1666V6.66674Z" fill="#E75401"/>
</svg>
