<svg width="24" height="25" viewBox="0 0 24 25" fill="none" xmlns="http://www.w3.org/2000/svg">
<path d="M22.8928 14.735C22.5528 14.4041 22.1575 14.1769 21.7375 14.0711C21.3174 13.9654 20.8839 13.9838 20.4703 14.125L16.9168 15.1575V15C16.9168 13.9391 16.5852 12.9217 15.995 12.1716C15.4047 11.4214 14.6042 11 13.7695 11H8.84591C8.38087 10.9984 7.9202 11.114 7.49054 11.3401C7.06089 11.5663 6.67079 11.8985 6.34282 12.3175L4.2292 15H1.96707C1.44537 15 0.945038 15.2634 0.576141 15.7322C0.207244 16.2011 0 16.837 0 17.5L0 22.5C0 23.163 0.207244 23.7989 0.576141 24.2678C0.945038 24.7366 1.44537 25 1.96707 25H11.8024C11.8989 24.9999 11.995 24.9848 12.0886 24.955L18.3832 22.955C18.4435 22.9362 18.5023 22.9111 18.5593 22.88L22.3774 20.8125C22.4 20.8013 22.4216 20.7887 22.4433 20.775C22.8703 20.5035 23.2359 20.0984 23.5057 19.5978C23.7756 19.0972 23.9408 18.5175 23.9857 17.9134C24.0307 17.3093 23.9539 16.7005 23.7627 16.1445C23.5715 15.5885 23.2721 15.1034 22.8928 14.735ZM3.54073 22H2.36048V18H3.54073V22ZM21.4096 18.0763L17.7203 20.0763L11.6569 22H5.90121V17.125L8.01187 14.4425C8.12098 14.3023 8.25086 14.191 8.39402 14.1151C8.53719 14.0391 8.69078 14 8.84591 14H13.7695C13.9782 14 14.1783 14.1054 14.3259 14.2929C14.4734 14.4804 14.5563 14.7348 14.5563 15C14.5563 15.2652 14.4734 15.5196 14.3259 15.7071C14.1783 15.8946 13.9782 16 13.7695 16H11.0156C10.7026 16 10.4024 16.158 10.181 16.4393C9.95969 16.7206 9.83535 17.1022 9.83535 17.5C9.83535 17.8978 9.95969 18.2794 10.181 18.5607C10.4024 18.842 10.7026 19 11.0156 19H14.1629C14.2519 19 14.3406 18.9874 14.4275 18.9625L21.0172 17.0362L21.0634 17.0212C21.1306 16.998 21.201 16.9948 21.2694 17.0118C21.3377 17.0287 21.402 17.0655 21.4574 17.1191C21.5128 17.1728 21.5576 17.242 21.5886 17.3212C21.6195 17.4005 21.6357 17.4878 21.6358 17.5763C21.6363 17.6776 21.6156 17.7773 21.5759 17.8651C21.5361 17.9529 21.4787 18.0258 21.4096 18.0763ZM16.13 10C16.3003 9.99987 16.4705 9.98567 16.6394 9.9575C16.9902 10.7477 17.5035 11.4017 18.1244 11.8494C18.7453 12.2971 19.4504 12.5217 20.164 12.499C20.8776 12.4764 21.573 12.2074 22.1755 11.7209C22.7781 11.2344 23.2651 10.5487 23.5844 9.73727C23.9038 8.92584 24.0434 8.01928 23.9883 7.11472C23.9332 6.21017 23.6855 5.34171 23.2717 4.6024C22.8579 3.8631 22.2936 3.28081 21.6394 2.91794C20.9851 2.55507 20.2655 2.42529 19.5576 2.5425C19.2174 1.77641 18.7242 1.13794 18.1278 0.691559C17.5313 0.245177 16.8528 0.00667735 16.1607 0.000138184C15.4685 -0.00640098 14.7873 0.219252 14.1857 0.654316C13.5841 1.08938 13.0835 1.71846 12.7344 2.47804C12.3853 3.23762 12.2 4.10081 12.1973 4.98048C12.1946 5.86016 12.3746 6.72516 12.719 7.48819C13.0635 8.25121 13.5602 8.88523 14.1591 9.32625C14.758 9.76727 15.4378 9.99967 16.13 10ZM20.0641 5.5C20.3753 5.5 20.6796 5.6173 20.9384 5.83706C21.1972 6.05682 21.3989 6.36918 21.518 6.73463C21.6371 7.10009 21.6682 7.50222 21.6075 7.89018C21.5468 8.27814 21.3969 8.63451 21.1769 8.91421C20.9568 9.19392 20.6764 9.3844 20.3711 9.46157C20.0659 9.53874 19.7494 9.49913 19.4619 9.34776C19.1743 9.19638 18.9286 8.94004 18.7557 8.61114C18.5827 8.28224 18.4905 7.89556 18.4905 7.5C18.4905 6.96957 18.6562 6.46086 18.9514 6.08579C19.2465 5.71071 19.6467 5.5 20.0641 5.5ZM16.13 3C16.3781 2.99986 16.6228 3.0743 16.8439 3.21725C17.0651 3.36019 17.2566 3.56759 17.4027 3.8225C16.6921 4.65017 16.2461 5.78121 16.1496 7H16.13C15.7126 7 15.3123 6.78929 15.0172 6.41421C14.7221 6.03914 14.5563 5.53043 14.5563 5C14.5563 4.46957 14.7221 3.96086 15.0172 3.58579C15.3123 3.21071 15.7126 3 16.13 3Z" fill="#1915CB"/>
</svg>
